<svg viewBox="0 0 900 480" xmlns="http://www.w3.org/2000/svg" role="img" aria-label="Bonsai: from the active approach to the proactive approach for AI-assisted coding">
  <defs>
    <linearGradient id="bgGrad" x1="0%" y1="0%" x2="0%" y2="100%">
      <stop offset="0%" stop-color="#f7f3ea"/>
      <stop offset="100%" stop-color="#ede5d4"/>
    </linearGradient>
    <radialGradient id="leafGlow" cx="50%" cy="50%">
      <stop offset="0%" stop-color="#a8d49a" stop-opacity="0.5"/>
      <stop offset="100%" stop-color="#a8d49a" stop-opacity="0"/>
    </radialGradient>
  </defs>

  <rect width="900" height="480" fill="url(#bgGrad)"/>

  <!-- Top header -->
  <text x="450" y="40" font-family="Helvetica, sans-serif" font-size="12" fill="#8b7355" text-anchor="middle" letter-spacing="3" font-weight="600">TWO APPROACHES TO AI-ASSISTED CODING</text>

  <!-- ============ LEFT CARD: ACTIVE ============ -->
  <g transform="translate(50, 70)">
    <!-- Card frame -->
    <rect x="0" y="0" width="380" height="310" rx="8" ry="8" fill="#ffffff" fill-opacity="0.5" stroke="#c9b89c" stroke-width="1"/>

    <!-- Label -->
    <text x="20" y="34" font-family="Helvetica, sans-serif" font-size="13" fill="#8b6f47" font-weight="700" letter-spacing="2.5">ACTIVE APPROACH</text>
    <text x="20" y="52" font-family="Helvetica, sans-serif" font-size="11" fill="#a89887" font-style="italic">you ask. Claude answers. you ask again.</text>

    <!-- Icon: cluster of speech bubbles with question marks -->
    <g transform="translate(190, 130)" opacity="0.8">
      <!-- Bubble 1 -->
      <path d="M -50 -25 q -8 0 -8 8 v 20 q 0 8 8 8 h 50 q 8 0 8 -8 v -20 q 0 -8 -8 -8 z m 22 28 l -10 12 v -12 z" fill="#d4b896"/>
      <text x="-25" y="-2" font-family="Helvetica, sans-serif" font-size="18" fill="#5a3818" text-anchor="middle" font-weight="700">?</text>
      <!-- Bubble 2 -->
      <path d="M 5 5 q -8 0 -8 8 v 18 q 0 8 8 8 h 45 q 8 0 8 -8 v -18 q 0 -8 -8 -8 z m 20 26 l -10 12 v -12 z" fill="#d4b896" opacity="0.85"/>
      <text x="27" y="29" font-family="Helvetica, sans-serif" font-size="16" fill="#5a3818" text-anchor="middle" font-weight="700">?</text>
      <!-- Bubble 3 -->
      <path d="M -40 35 q -8 0 -8 8 v 16 q 0 8 8 8 h 40 q 8 0 8 -8 v -16 q 0 -8 -8 -8 z m 18 24 l -10 12 v -12 z" fill="#d4b896" opacity="0.7"/>
      <text x="-20" y="56" font-family="Helvetica, sans-serif" font-size="14" fill="#5a3818" text-anchor="middle" font-weight="700">?</text>
    </g>

    <!-- Description bullets -->
    <g font-family="Helvetica, sans-serif" font-size="13" fill="#5d4e3c">
      <text x="20" y="225">You drive every interaction.</text>
      <text x="20" y="248">Claude responds only to your prompts.</text>
      <text x="20" y="282" fill="#8b6f47" font-style="italic">It catches only what you remember to look for.</text>
    </g>
  </g>

  <!-- Center separator with VS -->
  <g transform="translate(450, 225)">
    <line x1="0" y1="-100" x2="0" y2="100" stroke="#c9b89c" stroke-width="0.5" stroke-dasharray="3 5" opacity="0.7"/>
    <circle cx="0" cy="0" r="22" fill="#f7f3ea" stroke="#c9b89c" stroke-width="1"/>
    <text x="0" y="5" font-family="Georgia, serif" font-size="13" fill="#8b7355" text-anchor="middle" font-style="italic">vs</text>
  </g>

  <!-- ============ RIGHT CARD: PROACTIVE ============ -->
  <g transform="translate(470, 70)">
    <!-- Card frame -->
    <rect x="0" y="0" width="380" height="310" rx="8" ry="8" fill="#ffffff" fill-opacity="0.65" stroke="#9ab885" stroke-width="1.5"/>

    <!-- Label -->
    <text x="20" y="34" font-family="Helvetica, sans-serif" font-size="13" fill="#4a7c3a" font-weight="700" letter-spacing="2.5">PROACTIVE APPROACH</text>
    <text x="20" y="52" font-family="Helvetica, sans-serif" font-size="11" fill="#6b8b5a" font-style="italic">Bonsai watches between the asks</text>

    <!-- Bonsai illustration centered in the icon area
         scaled to 0.7 + raised so the pot stays above the bullets at y=225+ -->
    <g transform="translate(190, 130) scale(0.7)">
      <!-- Soft glow behind the falling leaf -->
      <circle cx="60" cy="-30" r="32" fill="url(#leafGlow)"/>

      <!-- Pot -->
      <path d="M -52 50 L -47 78 L 47 78 L 52 50 Z" fill="#6b4423"/>
      <path d="M -52 50 L 52 50 L 47 56 L -47 56 Z" fill="#8b5a2b"/>

      <!-- Trunk + branches -->
      <path d="M 0 50 Q -10 22 -3 -16 Q 6 -44 -6 -72" stroke="#4a3018" stroke-width="4.5" fill="none" stroke-linecap="round"/>
      <path d="M -3 -16 Q 4 -26 14 -38" stroke="#4a3018" stroke-width="3" fill="none" stroke-linecap="round"/>
      <path d="M -5 -52 Q -16 -58 -28 -52" stroke="#4a3018" stroke-width="3" fill="none" stroke-linecap="round"/>

      <!-- Foliage clusters -->
      <ellipse cx="-26" cy="-52" rx="26" ry="19" fill="#5c8e4a"/>
      <ellipse cx="20" cy="-62" rx="30" ry="21" fill="#4a7c3a"/>
      <ellipse cx="-8" cy="-78" rx="22" ry="16" fill="#3d6b2e"/>
      <ellipse cx="28" cy="-42" rx="20" ry="14" fill="#5c8e4a"/>
      <ellipse cx="-32" cy="-28" rx="16" ry="11" fill="#4a7c3a"/>
      <ellipse cx="28" cy="-68" rx="9" ry="5.5" fill="#7ba05b" opacity="0.6"/>

      <!-- A single leaf detaching: the observation -->
      <g opacity="0.4">
        <ellipse cx="42" cy="-44" rx="3" ry="1.5" fill="#7ba05b" transform="rotate(55 42 -44)"/>
        <ellipse cx="52" cy="-37" rx="2.5" ry="1.2" fill="#7ba05b" transform="rotate(65 52 -37)"/>
      </g>
      <g transform="translate(62, -30) rotate(50)">
        <ellipse cx="0" cy="0" rx="5" ry="2.7" fill="#7ba05b"/>
        <line x1="-5" y1="0" x2="5" y2="0" stroke="#4a7c3a" stroke-width="0.5"/>
      </g>
    </g>

    <!-- Description bullets -->
    <g font-family="Helvetica, sans-serif" font-size="13" fill="#3d5c2e">
      <text x="20" y="225">A plugin that watches your whole session.</text>
      <text x="20" y="248">Surfaces only what matters. Stays quiet otherwise.</text>
      <text x="20" y="282" fill="#4a7c3a" font-style="italic">It catches what you would have missed.</text>
    </g>
  </g>

  <!-- Wordmark + tagline at the bottom -->
  <text x="450" y="430" font-family="Georgia, 'Times New Roman', serif" font-size="34" fill="#3d2f1f" font-weight="400" text-anchor="middle" letter-spacing="2.5">Bonsai</text>
  <text x="450" y="456" font-family="Helvetica, sans-serif" font-size="11" fill="#7a6a52" text-anchor="middle" letter-spacing="2.4">A PATIENT OBSERVER FOR YOUR CLAUDE CODE SESSIONS</text>
</svg>
